<mxfile host="app.diagrams.net" modified="2024-03-28T01:23:08.338Z" agent="Mozilla/5.0 (Macintosh; Intel Mac OS X 10_15_7) AppleWebKit/537.36 (KHTML, like Gecko) Chrome/123.0.0.0 Safari/537.36" version="24.2.0" etag="z4FShPKUzorQ-Nw6Lp0Y" type="github">
  <diagram name="Page-1" id="-_4WcAgYxRcKM9tcvGRm">
    <mxGraphModel>
      <root>
        <mxCell id="0" />
        <mxCell id="1" parent="0" />
      </root>
    </mxGraphModel>
  </diagram>
</mxfile>
